<svg xmlns="http://www.w3.org/2000/svg" viewBox="0 0 64 64" fill="none">
  <!-- Background rounded square -->
  <rect width="64" height="64" rx="14" fill="#2563eb"/>
  
  <!-- Document body -->
  <rect x="16" y="10" width="26" height="34" rx="3" fill="white" opacity="0.95"/>
  
  <!-- Dog-ear fold -->
  <path d="M36 10 L42 16 L36 16 Z" fill="#bfdbfe"/>
  <path d="M36 10 L42 16 L42 13 C42 11.34 40.66 10 39 10 Z" fill="#93c5fd"/>
  
  <!-- Text lines on document -->
  <rect x="20" y="19" width="14" height="2" rx="1" fill="#2563eb" opacity="0.3"/>
  <rect x="20" y="24" width="18" height="1.5" rx="0.75" fill="#2563eb" opacity="0.2"/>
  <rect x="20" y="28" width="16" height="1.5" rx="0.75" fill="#2563eb" opacity="0.2"/>
  <rect x="20" y="32" width="18" height="1.5" rx="0.75" fill="#2563eb" opacity="0.2"/>
  <rect x="20" y="36" width="12" height="1.5" rx="0.75" fill="#2563eb" opacity="0.2"/>
  
  <!-- Checkmark circle (ATS pass badge) -->
  <circle cx="42" cy="38" r="13" fill="#10b981" stroke="#2563eb" stroke-width="2"/>
  <path d="M35 38 L40 43 L49 33" stroke="white" stroke-width="3" stroke-linecap="round" stroke-linejoin="round" fill="none"/>
</svg>
